<?xml version="1.0" standalone="no"?><!DOCTYPE svg PUBLIC "-//W3C//DTD SVG 1.1//EN" "http://www.w3.org/Graphics/SVG/1.1/DTD/svg11.dtd"><svg t="1540811478065" class="icon" style="" viewBox="0 0 1024 1024" version="1.1" xmlns="http://www.w3.org/2000/svg" p-id="804" xmlns:xlink="http://www.w3.org/1999/xlink" width="200" height="200"><defs><style type="text/css"></style></defs><path d="M507.814645 978.392892c-108.503149 0-210.524595-40.909049-287.272102-115.191816C143.721658 788.848695 101.412787 689.967442 101.412787 584.775699c0-73.846262 19.934295-144.954969 57.646708-205.634625 4.777081-7.68397 8.018874-16.342547 11.450696-25.509124 5.021674-13.411199 10.216444-27.28148 20.707584-38.594827 11.279481-12.160014 27.371791-20.649258 42.933523-28.858161 9.72914-5.132681 18.920177-9.979377 26.549584-15.465777 20.542014-14.769629 42.783005-27.712339 66.10773-38.472531 5.108222-6.011333 3.349037-43.006901 2.180637-67.562115-2.374429-49.925108-4.827881-101.551076 15.287036-121.101549 3.443111-3.345274 7.825081-5.115748 12.671777-5.115748 15.552325 0 37.479109 19.911717 65.172633 59.183878 20.167599 28.600398 38.690783 61.259152 41.29099 72.798277 1.443096 6.410207 13.550429 20.000147 19.351036 21.723584-0.047037-0.018815 0.396993 0.054563 1.490133 0.054563 1.766711 0 4.225807-0.173096 7.072488-0.372533 4.459111-0.312326 10.009481-0.701793 16.487421-0.701793 22.920206 0 44.583583 5.55037 65.533878 10.918236 19.885377 5.095052 38.670087 9.907881 57.528174 9.907881 0.003763 0 0.005644 0 0.007526 0 1.836326 0 3.668889-0.047037 5.450652-0.13923 2.752607-0.144874 11.128962-4.154311 15.456369-7.401748 13.712236-10.291703 34.468739-32.83185 56.444441-56.694678 46.406738-50.393597 75.993033-80.992129 95.513402-80.992129 5.661377 0 10.530651 2.519304 13.706592 7.093185 10.350029 14.893807 14.538207 25.828976 16.598429 43.334279 0.223896 1.907822 0.502356 4.039541 0.807156 6.393274 3.678296 28.408487 11.302059 87.287565-15.093244 165.664435 1.294459 10.176933 5.443126 33.087731 12.572059 42.282531 49.733197 64.169804 81.868899 163.579753 81.868899 253.260563 0 105.191742-42.30699 204.072996-119.125993 278.425376C718.335477 937.483842 616.315912 978.392892 507.814645 978.392892zM356.951824 55.394575c-0.491067 0-0.62277 0.084667-0.869244 0.325496-14.641688 14.229644-12.060296 68.516026-10.175051 108.155075 2.391363 50.297642 2.95957 76.858514-11.665185 83.586691-22.468651 10.33874-43.885553 22.788502-63.652396 37.001213-8.579555 6.167496-18.724503 11.518429-28.534546 16.694384-14.306784 7.548503-29.102754 15.352888-38.417968 25.396236-8.220192 8.863659-12.613451 20.596577-17.266355 33.019998-3.571052 9.535348-7.262518 19.396191-12.927659 28.508206C137.397999 446.072893 118.346119 514.090326 118.346119 584.775699c0 207.704255 174.71436 376.68386 389.466644 376.68386 214.748521 0 389.459118-168.979605 389.459118-376.68386 0-86.160558-30.741524-181.498982-78.318544-242.886075-11.87591-15.315258-15.827021-48.871479-16.239066-52.64573l-0.2032-1.873955 0.6096-1.785526c25.860961-75.554647 18.489317-132.482629 14.944607-159.84125-0.314207-2.427111-0.598311-4.624681-0.827852-6.588948-1.725318-14.651095-4.901259-22.971006-13.565481-35.47345-13.582414 0.16557-55.334367 45.50739-82.980854 75.528307-22.517569 24.451732-43.783953 47.546916-58.739848 58.768071-4.254029 3.190992-16.38394 10.331214-24.735836 10.765836-2.075274 0.109126-4.205111 0.163689-6.333066 0.163689-0.001881 0-0.005644 0-0.007526 0-20.993569 0-41.703035-5.305777-61.731404-10.438459-19.936177-5.10634-40.547805-10.387659-61.33253-10.387659-5.885274 0-11.106385 0.366889-15.303969 0.6604-3.164652 0.222015-5.896563 0.413926-8.25594 0.413926-2.558815 0-4.54754-0.235185-6.26157-0.741304-12.66237-3.730978-28.511969-22.765925-31.099006-34.250487-1.619955-7.192903-17.467673-36.777316-38.609879-66.760604C379.335808 66.348559 362.396831 55.394575 356.951824 55.394575zM275.404658 634.260541c5.403615-1.862667 25.166695-1.830681-2.242726-30.679435 37.146087 41.114131 114.091149-49.593968 12.464814-78.356173-27.379317-7.751703-103.300853-4.942652-92.465402 44.203523 2.161822 5.123274 25.576858 26.692576 26.31628 24.587199-30.340769-4.502385-10.099792 40.005938 20.86751 43.968338C246.337652 638.757282 269.692481 636.230452 275.404658 634.260541zM277.139384 691.495204c-54.470767-38.152679-109.235046 12.239036-52.820708 33.121598 40.004057 14.799732 44.801834 7.657629 81.069269 13.418725 24.256058 3.858918 163.991798 11.34157 166.373753-32.109361-5.779911 0.524933-0.630296 11.486444 0 0-43.048294 3.900311-87.528395 13.051836-106.279238 16.658636-13.928607 2.679229-28.39908-11.781836-45.71059-17.749895L277.139384 691.495204zM522.608733 410.170465c37.864813-2.163704 69.599759 46.165908 69.599759 46.165908s-31.734946 50.847034-66.356085 49.767064c-34.62302-1.081852-33.046339-13.313362-57.343789-19.113969C444.350397 481.218965 484.742039 412.334169 522.608733 410.170465zM511.833489 434.396419c5.145852-6.696192 19.24191 20.133732 21.341643 2.116667 0.718726-6.131748-1.441215-9.016059-24.884473-8.658577-23.439495 0.361244-33.89865 51.07093-19.112088 59.509374 11.401777 6.504281 19.682177 17.638888 16.065969 3.256844C502.221001 478.611232 504.283104 444.217752 511.833489 434.396419zM279.075428 368.125001c28.848754 0 38.224176 18.754606 38.948546 29.215643 0.720607 10.459155-18.032117 51.571404-36.784842 51.571404-8.809096 0.003763-32.263643-12.28231-34.619257-31.189317C243.95946 396.379207 263.775222 368.125001 279.075428 368.125001zM275.097977 380.789252c5.396089-7.727244-20.705703 5.505214-18.875021 29.311598 1.830681 23.800739 26.137539 34.483791 20.805421 27.21751-19.667125-26.784769-5.145852-61.326885-10.445985-51.422767 5.313303 4.005674 16.494947-4.64914 3.883378-6.745111C269.671784 379.02066 274.62008 381.47223 275.097977 380.789252zM305.613723 387.3782c-2.886192 0-5.226755 2.50237-5.226755 5.591763 0 3.085629 2.340563 5.589881 5.226755 5.589881 2.888074 0 5.230518-2.504252 5.230518-5.589881C310.844241 389.88057 308.501797 387.3782 305.613723 387.3782z" p-id="805" fill="#1296db"></path></svg>